<mxfile host="65bd71144e">
    <diagram id="gWXGfiudFhvckFrV3_yu" name="Page-1">
        <mxGraphModel dx="3063" dy="2709" grid="1" gridSize="10" guides="1" tooltips="1" connect="1" arrows="1" fold="1" page="1" pageScale="1" pageWidth="850" pageHeight="1100" math="0" shadow="0">
            <root>
                <mxCell id="0"/>
                <mxCell id="1" parent="0"/>
                <mxCell id="18" value="" style="rounded=0;whiteSpace=wrap;html=1;" parent="1" vertex="1">
                    <mxGeometry y="-10" width="1500" height="370" as="geometry"/>
                </mxCell>
                <UserObject label="&lt;h1 style=&quot;color: rgb(51, 51, 51); font-family: Arial, sans-serif; font-style: normal; font-variant-ligatures: normal; font-variant-caps: normal; letter-spacing: normal; orphans: 2; text-align: start; text-indent: 0px; text-transform: none; widows: 2; word-spacing: 0px; -webkit-text-stroke-width: 0px; white-space: normal; text-decoration-thickness: initial; text-decoration-style: initial; text-decoration-color: initial;&quot;&gt;Accountoverzicht&lt;/h1&gt;&lt;input type=&quot;text&quot; id=&quot;zoekInput&quot; placeholder=&quot;Zoek op naam of gebruikersnaam...&quot; style=&quot;width: 300px; padding: 8px; margin-bottom: 15px; font-size: 16px; orphans: 2; widows: 2; -webkit-text-stroke-width: 0px; white-space: normal; text-decoration-thickness: initial; text-decoration-style: initial; text-decoration-color: initial;&quot;&gt;&lt;span style=&quot;color: rgb(0, 0, 0); font-family: Arial, sans-serif; font-size: medium; font-style: normal; font-variant-ligatures: normal; font-variant-caps: normal; font-weight: 400; letter-spacing: normal; orphans: 2; text-align: start; text-indent: 0px; text-transform: none; widows: 2; word-spacing: 0px; -webkit-text-stroke-width: 0px; white-space: normal; background-color: rgb(248, 248, 248); text-decoration-thickness: initial; text-decoration-style: initial; text-decoration-color: initial; display: inline !important; float: none;&quot;&gt;&lt;/span&gt;&lt;table style=&quot;width: 1496px; border-collapse: collapse; background-color: white; color: rgb(0, 0, 0); font-family: Arial, sans-serif; font-size: medium; font-style: normal; font-variant-ligatures: normal; font-variant-caps: normal; font-weight: 400; letter-spacing: normal; orphans: 2; text-align: start; text-transform: none; widows: 2; word-spacing: 0px; -webkit-text-stroke-width: 0px; white-space: normal; text-decoration-thickness: initial; text-decoration-style: initial; text-decoration-color: initial;&quot;&gt;&lt;thead&gt;&lt;tr&gt;&lt;th style=&quot;padding: 10px; border: 1px solid rgb(221, 221, 221); text-align: left; background-color: rgb(238, 238, 238);&quot;&gt;ID&lt;/th&gt;&lt;th style=&quot;padding: 10px; border: 1px solid rgb(221, 221, 221); text-align: left; background-color: rgb(238, 238, 238);&quot;&gt;Naam&lt;/th&gt;&lt;th style=&quot;padding: 10px; border: 1px solid rgb(221, 221, 221); text-align: left; background-color: rgb(238, 238, 238);&quot;&gt;Gebruikersnaam&lt;/th&gt;&lt;th style=&quot;padding: 10px; border: 1px solid rgb(221, 221, 221); text-align: left; background-color: rgb(238, 238, 238);&quot;&gt;Rol&lt;/th&gt;&lt;th style=&quot;padding: 10px; border: 1px solid rgb(221, 221, 221); text-align: left; background-color: rgb(238, 238, 238);&quot;&gt;Actief&lt;/th&gt;&lt;th style=&quot;padding: 10px; border: 1px solid rgb(221, 221, 221); text-align: left; background-color: rgb(238, 238, 238);&quot;&gt;Aangemaakt op&lt;/th&gt;&lt;th style=&quot;padding: 10px; border: 1px solid rgb(221, 221, 221); text-align: left; background-color: rgb(238, 238, 238);&quot;&gt;Acties&lt;/th&gt;&lt;/tr&gt;&lt;/thead&gt;&lt;tbody&gt;&lt;tr&gt;&lt;td style=&quot;padding: 10px; border: 1px solid rgb(221, 221, 221); text-align: left;&quot;&gt;1&lt;/td&gt;&lt;td style=&quot;padding: 10px; border: 1px solid rgb(221, 221, 221); text-align: left;&quot;&gt;Samir admin&lt;/td&gt;&lt;td style=&quot;padding: 10px; border: 1px solid rgb(221, 221, 221); text-align: left;&quot;&gt;samir2005@gmail.com&lt;/td&gt;&lt;td style=&quot;padding: 10px; border: 1px solid rgb(221, 221, 221); text-align: left;&quot;&gt;admin&lt;/td&gt;&lt;td style=&quot;padding: 10px; border: 1px solid rgb(221, 221, 221); text-align: left;&quot;&gt;Ja&lt;/td&gt;&lt;td style=&quot;padding: 10px; border: 1px solid rgb(221, 221, 221); text-align: left;&quot;&gt;2025-05-13 10:43:01.000000&lt;/td&gt;&lt;td style=&quot;padding: 10px; border: 1px solid rgb(221, 221, 221); text-align: left;&quot;&gt;&lt;select name=&quot;nieuwe_rol&quot;&gt;&amp;nbsp;&amp;nbsp; &amp;nbsp;&amp;nbsp; &amp;nbsp;&amp;nbsp; &amp;nbsp;&amp;nbsp; &amp;nbsp;&amp;nbsp; &amp;nbsp;&amp;nbsp; &amp;nbsp;&amp;nbsp; &amp;nbsp;&amp;nbsp; &amp;nbsp;&amp;nbsp; &amp;nbsp;&amp;nbsp; &amp;nbsp;&amp;nbsp; &amp;nbsp;&amp;nbsp; &amp;nbsp;&lt;option value=&quot;Lid&quot;&gt;Lid&lt;/option&gt;&amp;nbsp;&amp;nbsp; &amp;nbsp;&amp;nbsp; &amp;nbsp;&amp;nbsp; &amp;nbsp;&amp;nbsp; &amp;nbsp;&amp;nbsp; &amp;nbsp;&amp;nbsp; &amp;nbsp;&amp;nbsp; &amp;nbsp;&amp;nbsp; &amp;nbsp;&amp;nbsp; &amp;nbsp;&amp;nbsp; &amp;nbsp;&amp;nbsp; &amp;nbsp;&amp;nbsp; &amp;nbsp;&lt;option value=&quot;Medewerker&quot;&gt;Medewerker&lt;/option&gt;&amp;nbsp;&amp;nbsp; &amp;nbsp;&amp;nbsp; &amp;nbsp;&amp;nbsp; &amp;nbsp;&amp;nbsp; &amp;nbsp;&amp;nbsp; &amp;nbsp;&amp;nbsp; &amp;nbsp;&amp;nbsp; &amp;nbsp;&amp;nbsp; &amp;nbsp;&amp;nbsp; &amp;nbsp;&amp;nbsp; &amp;nbsp;&amp;nbsp; &amp;nbsp;&amp;nbsp; &amp;nbsp;&lt;option value=&quot;Admin&quot;&gt;Admin&lt;/option&gt;&amp;nbsp; &amp;nbsp;&amp;nbsp; &amp;nbsp;&amp;nbsp; &amp;nbsp;&amp;nbsp; &amp;nbsp;&amp;nbsp; &amp;nbsp;&amp;nbsp; &amp;nbsp;&amp;nbsp; &amp;nbsp;&amp;nbsp; &amp;nbsp;&amp;nbsp; &amp;nbsp;&amp;nbsp; &amp;nbsp;&amp;nbsp; &amp;nbsp;&lt;/select&gt;&lt;span&gt;&amp;nbsp;&lt;/span&gt;&lt;button type=&quot;submit&quot; name=&quot;rol_wijzigen&quot; class=&quot;actieknop wijzig-knop&quot; style=&quot;padding: 6px 12px; margin: 2px; border: none; border-radius: 4px; cursor: pointer; background-color: rgb(0, 123, 255); color: white;&quot;&gt;Wijzig&lt;/button&gt;&lt;span&gt;&amp;nbsp;&lt;/span&gt;&lt;button type=&quot;submit&quot; name=&quot;verwijderen&quot; class=&quot;actieknop verwijder-knop&quot; style=&quot;padding: 6px 12px; margin: 2px; border: none; border-radius: 4px; cursor: pointer; background-color: rgb(220, 53, 69); color: white;&quot;&gt;Verwijder&lt;/button&gt;&lt;/td&gt;&lt;/tr&gt;&lt;/tbody&gt;&lt;/table&gt;" link="&lt;h1 style=&quot;color: rgb(51, 51, 51); font-family: Arial, sans-serif; font-style: normal; font-variant-ligatures: normal; font-variant-caps: normal; letter-spacing: normal; orphans: 2; text-align: start; text-indent: 0px; text-transform: none; widows: 2; word-spacing: 0px; -webkit-text-stroke-width: 0px; white-space: normal; text-decoration-thickness: initial; text-decoration-style: initial; text-decoration-color: initial;&quot;&gt;Accountoverzicht&lt;/h1&gt;&lt;input type=&quot;text&quot; id=&quot;zoekInput&quot; placeholder=&quot;Zoek op naam of gebruikersnaam...&quot; style=&quot;width: 300px; padding: 8px; margin-bottom: 15px; font-size: 16px; orphans: 2; widows: 2; -webkit-text-stroke-width: 0px; white-space: normal; text-decoration-thickness: initial; text-decoration-style: initial; text-decoration-color: initial;&quot;&gt;&lt;span style=&quot;color: rgb(0, 0, 0); font-family: Arial, sans-serif; font-size: medium; font-style: normal; font-variant-ligatures: normal; font-variant-caps: normal; font-weight: 400; letter-spacing: normal; orphans: 2; text-align: start; text-indent: 0px; text-transform: none; widows: 2; word-spacing: 0px; -webkit-text-stroke-width: 0px; white-space: normal; background-color: rgb(248, 248, 248); text-decoration-thickness: initial; text-decoration-style: initial; text-decoration-color: initial; display: inline !important; float: none;&quot;&gt;&lt;/span&gt;&lt;table style=&quot;width: 1496px; border-collapse: collapse; background-color: white; color: rgb(0, 0, 0); font-family: Arial, sans-serif; font-size: medium; font-style: normal; font-variant-ligatures: normal; font-variant-caps: normal; font-weight: 400; letter-spacing: normal; orphans: 2; text-align: start; text-transform: none; widows: 2; word-spacing: 0px; -webkit-text-stroke-width: 0px; white-space: normal; text-decoration-thickness: initial; text-decoration-style: initial; text-decoration-color: initial;&quot;&gt;&lt;thead&gt;&lt;tr&gt;&lt;th style=&quot;padding: 10px; border: 1px solid rgb(221, 221, 221); text-align: left; background-color: rgb(238, 238, 238);&quot;&gt;ID&lt;/th&gt;&lt;th style=&quot;padding: 10px; border: 1px solid rgb(221, 221, 221); text-align: left; background-color: rgb(238, 238, 238);&quot;&gt;Naam&lt;/th&gt;&lt;th style=&quot;padding: 10px; border: 1px solid rgb(221, 221, 221); text-align: left; background-color: rgb(238, 238, 238);&quot;&gt;Gebruikersnaam&lt;/th&gt;&lt;th style=&quot;padding: 10px; border: 1px solid rgb(221, 221, 221); text-align: left; background-color: rgb(238, 238, 238);&quot;&gt;Rol&lt;/th&gt;&lt;th style=&quot;padding: 10px; border: 1px solid rgb(221, 221, 221); text-align: left; background-color: rgb(238, 238, 238);&quot;&gt;Actief&lt;/th&gt;&lt;th style=&quot;padding: 10px; border: 1px solid rgb(221, 221, 221); text-align: left; background-color: rgb(238, 238, 238);&quot;&gt;Aangemaakt op&lt;/th&gt;&lt;th style=&quot;padding: 10px; border: 1px solid rgb(221, 221, 221); text-align: left; background-color: rgb(238, 238, 238);&quot;&gt;Acties&lt;/th&gt;&lt;/tr&gt;&lt;/thead&gt;&lt;tbody&gt;&lt;tr&gt;&lt;td style=&quot;padding: 10px; border: 1px solid rgb(221, 221, 221); text-align: left;&quot;&gt;1&lt;/td&gt;&lt;td style=&quot;padding: 10px; border: 1px solid rgb(221, 221, 221); text-align: left;&quot;&gt;Samir admin&lt;/td&gt;&lt;td style=&quot;padding: 10px; border: 1px solid rgb(221, 221, 221); text-align: left;&quot;&gt;samir2005@gmail.com&lt;/td&gt;&lt;td style=&quot;padding: 10px; border: 1px solid rgb(221, 221, 221); text-align: left;&quot;&gt;admin&lt;/td&gt;&lt;td style=&quot;padding: 10px; border: 1px solid rgb(221, 221, 221); text-align: left;&quot;&gt;Ja&lt;/td&gt;&lt;td style=&quot;padding: 10px; border: 1px solid rgb(221, 221, 221); text-align: left;&quot;&gt;2025-05-13 10:43:01.000000&lt;/td&gt;&lt;td style=&quot;padding: 10px; border: 1px solid rgb(221, 221, 221); text-align: left;&quot;&gt;&lt;select name=&quot;nieuwe_rol&quot;&gt;&amp;nbsp;&amp;nbsp; &amp;nbsp;&amp;nbsp; &amp;nbsp;&amp;nbsp; &amp;nbsp;&amp;nbsp; &amp;nbsp;&amp;nbsp; &amp;nbsp;&amp;nbsp; &amp;nbsp;&amp;nbsp; &amp;nbsp;&amp;nbsp; &amp;nbsp;&amp;nbsp; &amp;nbsp;&amp;nbsp; &amp;nbsp;&amp;nbsp; &amp;nbsp;&amp;nbsp; &amp;nbsp;&lt;option value=&quot;Lid&quot;&gt;Lid&lt;/option&gt;&amp;nbsp;&amp;nbsp; &amp;nbsp;&amp;nbsp; &amp;nbsp;&amp;nbsp; &amp;nbsp;&amp;nbsp; &amp;nbsp;&amp;nbsp; &amp;nbsp;&amp;nbsp; &amp;nbsp;&amp;nbsp; &amp;nbsp;&amp;nbsp; &amp;nbsp;&amp;nbsp; &amp;nbsp;&amp;nbsp; &amp;nbsp;&amp;nbsp; &amp;nbsp;&amp;nbsp; &amp;nbsp;&lt;option value=&quot;Medewerker&quot;&gt;Medewerker&lt;/option&gt;&amp;nbsp;&amp;nbsp; &amp;nbsp;&amp;nbsp; &amp;nbsp;&amp;nbsp; &amp;nbsp;&amp;nbsp; &amp;nbsp;&amp;nbsp; &amp;nbsp;&amp;nbsp; &amp;nbsp;&amp;nbsp; &amp;nbsp;&amp;nbsp; &amp;nbsp;&amp;nbsp; &amp;nbsp;&amp;nbsp; &amp;nbsp;&amp;nbsp; &amp;nbsp;&amp;nbsp; &amp;nbsp;&lt;option value=&quot;Admin&quot;&gt;Admin&lt;/option&gt;&amp;nbsp; &amp;nbsp;&amp;nbsp; &amp;nbsp;&amp;nbsp; &amp;nbsp;&amp;nbsp; &amp;nbsp;&amp;nbsp; &amp;nbsp;&amp;nbsp; &amp;nbsp;&amp;nbsp; &amp;nbsp;&amp;nbsp; &amp;nbsp;&amp;nbsp; &amp;nbsp;&amp;nbsp; &amp;nbsp;&amp;nbsp; &amp;nbsp;&lt;/select&gt;&lt;span&gt;&amp;nbsp;&lt;/span&gt;&lt;button type=&quot;submit&quot; name=&quot;rol_wijzigen&quot; class=&quot;actieknop wijzig-knop&quot; style=&quot;padding: 6px 12px; margin: 2px; border: none; border-radius: 4px; cursor: pointer; background-color: rgb(0, 123, 255); color: white;&quot;&gt;Wijzig&lt;/button&gt;&lt;span&gt;&amp;nbsp;&lt;/span&gt;&lt;button type=&quot;submit&quot; name=&quot;verwijderen&quot; class=&quot;actieknop verwijder-knop&quot; style=&quot;padding: 6px 12px; margin: 2px; border: none; border-radius: 4px; cursor: pointer; background-color: rgb(220, 53, 69); color: white;&quot;&gt;Verwijder&lt;/button&gt;&lt;/td&gt;&lt;/tr&gt;&lt;/tbody&gt;&lt;/table&gt;" id="20">
                    <mxCell style="text;whiteSpace=wrap;html=1;" vertex="1" parent="1">
                        <mxGeometry y="-10" width="1500" height="230" as="geometry"/>
                    </mxCell>
                </UserObject>
            </root>
        </mxGraphModel>
    </diagram>
</mxfile>